<svg xmlns="http://www.w3.org/2000/svg" viewBox="0 0 64 64" fill="none">
  <defs>
    <linearGradient id="cs-fav" x1="0" y1="0" x2="1" y2="1">
      <stop offset="0%" stop-color="#8b5cf6"/>
      <stop offset="100%" stop-color="#7c3aed"/>
    </linearGradient>
  </defs>
  <rect x="4" y="4" width="56" height="56" rx="13" fill="url(#cs-fav)"/>
  <rect x="20.75" y="9" width="2.5" height="7" rx="1.2" fill="rgba(255,255,255,0.45)"/>
  <rect x="40.75" y="9" width="2.5" height="7" rx="1.2" fill="rgba(255,255,255,0.45)"/>
  <circle cx="22" cy="9" r="2.6" fill="rgba(255,255,255,0.8)"/>
  <circle cx="42" cy="9" r="2.6" fill="rgba(255,255,255,0.8)"/>
  <rect x="11" y="13" width="42" height="40" rx="4" fill="rgba(255,255,255,0.07)" stroke="rgba(255,255,255,0.35)" stroke-width="0.9"/>
  <path d="M 11 17 A 4 4 0 0 1 15 13 H 49 A 4 4 0 0 1 53 17 V 22 H 11 Z" fill="rgba(255,255,255,0.32)"/>
  <rect x="16" y="28" width="12" height="3" rx="1.5" fill="#ffffff" opacity="0.92"/>
  <rect x="31" y="28" width="17" height="3" rx="1.5" fill="#ffffff" opacity="0.92"/>
  <rect x="16" y="35" width="20" height="3" rx="1.5" fill="#ffffff" opacity="0.92"/>
  <rect x="39" y="35" width="9" height="3" rx="1.5" fill="#ffffff" opacity="0.92"/>
  <rect x="16" y="42" width="10" height="3" rx="1.5" fill="#ffffff" opacity="0.92"/>
  <rect x="29" y="42" width="15" height="3" rx="1.5" fill="#ffffff" opacity="0.92"/>
  <circle cx="50" cy="50" r="9" fill="#ffffff"/>
  <path d="M45.6 50.2 L48.8 53.4 L54.6 47.3" stroke="#7c3aed" stroke-width="2.5" stroke-linecap="round" stroke-linejoin="round" fill="none"/>
</svg>
